# xmcd CD database file
#
# Track frame offsets:
#	150
#	38618
#	85994
#	126941
#	148979
#	171108
#	196937
#
# Disc length: 2884 seconds
#
# Revision: 1
# Processed by: cddbd v1.5.2PL0 Copyright (c) Steve Scherf et al.
# Submitted via: CDex 1.51
#
DISCID=5e0b4207
DTITLE=Art Blakey - I Talk To The Trees
DYEAR=1957
DGENRE=Jazz
TTITLE0=I Talk To The Trees
TTITLE1=Buhania Chant
TTITLE2=On The Street Where You Live
TTITLE3=They Call The Wind Maria
TTITLE4=Almost Like Being In Love
TTITLE5=Come Out And Meet Me Tonight
TTITLE6=I Could Have Danced All Night
EXTD=YEAR: 1957
EXTT0=
EXTT1=
EXTT2=
EXTT3=
EXTT4=
EXTT5=
EXTT6=
PLAYORDER=
